<?xml version="1.0" encoding="UTF-8" standalone="no"?>
<!-- Created with Inkscape (http://www.inkscape.org/) -->

<svg
   xmlns:dc="http://purl.org/dc/elements/1.1/"
   xmlns:cc="http://creativecommons.org/ns#"
   xmlns:rdf="http://www.w3.org/1999/02/22-rdf-syntax-ns#"
   xmlns:svg="http://www.w3.org/2000/svg"
   xmlns="http://www.w3.org/2000/svg"
   xmlns:sodipodi="http://sodipodi.sourceforge.net/DTD/sodipodi-0.dtd"
   xmlns:inkscape="http://www.inkscape.org/namespaces/inkscape"
   width="210mm"
   height="297mm"
   viewBox="0 0 210 297"
   version="1.1"
   id="svg235"
   inkscape:version="0.92.5 (2060ec1f9f, 2020-04-08)"
   sodipodi:docname="dibujo-12.svg">
  <defs
     id="defs229" />
  <sodipodi:namedview
     id="base"
     pagecolor="#ffffff"
     bordercolor="#666666"
     borderopacity="1.0"
     inkscape:pageopacity="0.0"
     inkscape:pageshadow="2"
     inkscape:zoom="0.35"
     inkscape:cx="-208.57143"
     inkscape:cy="560"
     inkscape:document-units="mm"
     inkscape:current-layer="layer1"
     showgrid="false"
     inkscape:window-width="1440"
     inkscape:window-height="875"
     inkscape:window-x="1366"
     inkscape:window-y="0"
     inkscape:window-maximized="1" />
  <metadata
     id="metadata232">
    <rdf:RDF>
      <cc:Work
         rdf:about="">
        <dc:format>image/svg+xml</dc:format>
        <dc:type
           rdf:resource="http://purl.org/dc/dcmitype/StillImage" />
        <dc:title></dc:title>
      </cc:Work>
    </rdf:RDF>
  </metadata>
  <g
     inkscape:label="Capa 1"
     inkscape:groupmode="layer"
     id="layer1">
    <ellipse
       style="fill:#2b0000;stroke:#800000;stroke-width:0.26458332;stroke-opacity:0.63681593"
       id="path237"
       cx="117.17262"
       cy="165.84227"
       rx="60.476189"
       ry="58.586308" />
    <path
       style="fill:#280b0b;stroke:#000000;stroke-width:0.26458332px;stroke-linecap:butt;stroke-linejoin:miter;stroke-opacity:1"
       d="m 111.88095,119.35119 c 0,-5.29167 0,-10.58334 0,-15.875 0,-0.75595 0,-1.51191 0,-2.26786 0,-0.50397 -0.0988,-1.01772 0,-1.511903 0.31255,-1.56274 1.19936,-2.972974 1.51191,-4.535714 0.0988,-0.494181 0,-1.007936 0,-1.511904 0.25198,-0.755954 0.56269,-1.494806 0.75595,-2.267857 0.0611,-0.244462 0,-0.503968 0,-0.755952 0,-0.50397 -0.12223,-1.022985 0,-1.511906 0.13665,-0.546632 0.57777,-0.977365 0.75595,-1.511906 0.0797,-0.239051 -0.11269,-0.530569 0,-0.755951 0.15937,-0.318738 0.64326,-0.41788 0.75595,-0.755952 0.15937,-0.478107 -0.15937,-1.033798 0,-1.511906 0.0563,-0.168814 1.4034,-1.294892 1.51191,-1.511903 0.11269,-0.225383 -0.11269,-0.530572 0,-0.755954 0.15937,-0.318736 0.59658,-0.437214 0.75595,-0.755952 0.22538,-0.450762 -0.22538,-1.06114 0,-1.511903 0.15937,-0.318738 0.50397,-0.50397 0.75595,-0.755954 0.25199,-0.251984 0.50397,-0.503968 0.75595,-0.755952 0.25199,-0.251984 0.43722,-0.596582 0.75596,-0.755952 0.22538,-0.112691 0.57777,0.178179 0.75595,0 0.17818,-0.178181 -0.17818,-0.577773 0,-0.755954 0.17818,-0.178178 0.53057,0.112692 0.75595,0 0.31874,-0.159366 0.43722,-0.596582 0.75595,-0.755951 0.22539,-0.112692 0.50397,0 0.75596,0 0.25198,0 0.50397,0 0.75595,0 1.25992,0 2.51984,0 3.77976,0 1.51191,0 3.02381,0 4.53572,0 0.25198,0 0.57777,-0.178179 0.75595,0 0.17818,0.178181 0,0.503967 0,0.755951 0,0.503971 0,1.007938 0,1.511906 0,0.251984 0.17818,0.577773 0,0.755952 -0.17818,0.178181 -0.57777,-0.178179 -0.75595,0 -0.39843,0.398423 -0.44341,1.043082 -0.75596,1.511906 -0.19767,0.296508 -0.55828,0.459443 -0.75595,0.755951 -0.31255,0.468823 -0.41788,1.061143 -0.75595,1.511906 -0.85527,1.140349 -2.16855,1.883458 -3.02381,3.023809 -0.33807,0.450763 -0.50397,1.007936 -0.75595,1.511903 -0.25199,0.503971 -0.50397,1.007939 -0.75596,1.511906 -0.25198,0.503968 -0.4434,1.043083 -0.75595,1.511906 -0.19767,0.296508 -0.59658,0.437214 -0.75595,0.755952 -0.11269,0.22538 0.11269,0.530571 0,0.755951 -0.15937,0.318739 -0.55828,0.459444 -0.75595,0.755952 -0.31255,0.468823 -0.44341,1.043083 -0.75596,1.511906 -0.19767,0.296508 -0.59658,0.437213 -0.75595,0.755952 -0.11269,0.225382 0,0.503967 0,0.755954 0,0.755951 0,1.511903 0,2.267855 0,0.251983 0.11269,0.530571 0,0.755954 -0.15937,0.318735 -0.59658,0.437213 -0.75595,0.755951 -0.0563,0.112544 0.0542,1.349143 0,1.511903 -0.17818,0.53454 -0.57777,0.97737 -0.75595,1.51191 -0.0797,0.23905 0,0.50396 0,0.75595 0,0.25198 0,0.50397 0,0.75595 0,0.75595 0,1.51191 0,2.26786 0,0.25198 0.11269,0.53057 0,0.75595 -0.15937,0.31874 -0.59659,0.43721 -0.75596,0.75595 -0.15767,0.31535 0.17599,1.33592 0,1.51191 -1.56409,1.56409 0.0611,-2.39014 -1.5119,0.75595 -0.15767,0.31535 0.17599,1.33591 0,1.51191 -0.17818,0.17817 -0.57777,-0.17818 -0.75595,0 -0.50297,0.50297 0.50297,1.00893 0,1.5119 -0.17818,0.17818 -0.57777,-0.17818 -0.75595,0 -0.17819,0.17818 0,0.50397 0,0.75595 0,0.25199 0,0.50397 0,0.75596 0,0.25198 0.17818,0.57777 0,0.75595 -0.17819,0.17818 -0.57778,-0.17818 -0.75596,0 -0.17818,0.17818 0,0.50397 0,0.75595 0,0.25198 0,0.50397 0,0.75595 0,2.01587 0.25199,-0.25198 -0.75595,0.75595 -0.17818,0.17818 0,0.50397 0,0.75596 -1.00794,0.25198 -2.01587,0.50396 -3.02381,0.75595 z"
       id="path239"
       inkscape:connector-curvature="0" />
    <path
       style="fill:#ff0000;stroke:#000000;stroke-width:0.26458332px;stroke-linecap:butt;stroke-linejoin:miter;stroke-opacity:1"
       d="M 103.56547,75.505952 C 101.17622,74.691596 100.94251,74.75 99.02976,74.75 c -0.251984,0 -0.530569,0.112689 -0.755952,0 -0.934133,-0.467066 -0.755952,-0.729861 -0.755952,-1.511906 0,-0.503967 0,-1.007935 0,-1.511905 0,-1.25992 0,-2.519842 0,-3.779761 0,-1.511906 0,-3.023809 0,-4.535715 0,-0.503968 0,-1.007936 0,-1.511903 0,-0.251984 -0.112691,-0.530572 0,-0.755955 0.318739,-0.637473 1.193168,-0.874429 1.511904,-1.511903 0.112691,-0.225382 -0.112689,-0.530571 0,-0.755951 0.159369,-0.318739 0.50397,-0.503971 0.755954,-0.755955 0.251986,-0.251984 0.503966,-0.503967 0.755956,-0.755951 0.25198,-0.251984 0.50396,-0.503968 0.75595,-0.755952 0.25198,-0.251984 0.43721,-0.596585 0.75595,-0.755954 0.22538,-0.112689 0.53057,0.112691 0.75595,0 0.31874,-0.159367 0.43722,-0.596583 0.75595,-0.755952 0.22539,-0.112691 0.57778,0.178181 0.75596,0 0.17818,-0.178178 -0.17818,-0.577773 0,-0.755951 0.17818,-0.178181 0.50397,0 0.75595,0 2.26786,0 4.53571,0 6.80357,0 2.95309,0 0.0798,-0.225383 3.02381,0.755951 0.23905,0.07969 0.5169,-0.07968 0.75595,0 0.53454,0.178181 0.97737,0.577773 1.51191,0.755952 0.23905,0.07968 0.50396,0 0.75595,0 0.25198,0 0.57777,-0.178179 0.75595,0 0.35636,0.356359 -0.35636,1.155546 0,1.511906 0.17818,0.178178 0.57778,-0.178181 0.75595,0 0.17819,0.178178 -0.11269,0.530571 0,0.755951 0.15937,0.318739 0.59659,0.437216 0.75596,0.755955 0.11269,0.22538 0,0.503967 0,0.755951 0,0.503968 0,1.007936 0,1.511903 0,0.251984 0,0.503971 0,0.755955 0,0.503967 0.12223,1.022982 0,1.511903 -0.13666,0.546632 -0.50397,1.007938 -0.75596,1.511906 -0.25198,0.503968 -0.4434,1.043083 -0.75595,1.511903 -1.15323,1.729848 -0.59839,-0.472689 -1.5119,2.267858 -0.17818,0.534545 0.49039,2.267857 -0.75595,2.267857 -0.25199,0 0,-0.503968 0,-0.755952 0,-0.503967 0,-1.007938 0,-1.511905 0,-0.251984 -0.1127,-0.530572 0,-0.755952 0.15936,-0.318738 0.50396,-0.503968 0.75595,-0.755952 0.50396,-0.50397 1.00793,-1.007938 1.5119,-1.511906 0.50397,-0.503967 1.00794,-1.007935 1.51191,-1.511903 0.50397,-0.50397 0.94173,-1.084276 1.5119,-1.511906 0.45076,-0.338071 1.06114,-0.41788 1.51191,-0.755951 0.57017,-0.427633 0.90075,-1.145215 1.5119,-1.511906 0.68329,-0.409972 1.52801,-0.460013 2.26786,-0.755952 1.76261,-0.705043 1.63075,-1.153737 3.77976,-1.511906 0.74567,-0.124277 1.5119,0 2.26786,0 1.5119,0 3.02381,0 4.53571,0 1.25992,0 2.51984,0 3.77976,0 0.75596,0 1.52219,-0.124277 2.26786,0 0.786,0.131001 1.48649,0.599678 2.26786,0.755955 0.49418,0.09884 1.02298,-0.122233 1.5119,0 1.36823,-0.455637 1.40594,1.224597 2.26786,1.511903 3.44131,0 0.0432,-0.35636 2.26786,0.755951 0.22538,0.112692 0.57777,-0.178178 0.75595,0 0.17818,0.178181 0,0.503971 0,0.755955 0,0.503967 0,1.007935 0,1.511903 0,0.251984 0,0.503968 0,0.755954 0,0.251984 0.0797,0.516898 0,0.755952 -0.17818,0.534537 -0.50397,1.007935 -0.75595,1.511903 -0.25199,0.50397 -0.41788,1.061143 -0.75596,1.511906 -0.42763,0.570174 -1.08427,0.941729 -1.5119,1.511906 -0.33807,0.450762 -0.41788,1.06114 -0.75595,1.511903 -0.42763,0.570174 -1.00794,1.007935 -1.51191,1.511906 -0.50396,0.503968 -1.00793,1.007935 -1.5119,1.511903 -0.25199,0.251984 -0.50397,0.503968 -0.75595,0.755954 -0.50397,0.503968 -0.94174,1.084273 -1.51191,1.511904 -3.05514,2.291355 -0.35909,0.119697 -2.26786,0.755951 -0.53454,0.178181 -0.97736,0.577773 -1.5119,0.755954 -0.23905,0.07968 -0.50397,0 -0.75595,0 -0.50397,0 -1.00794,0 -1.51191,0 -0.25198,0 -0.57777,0.178179 -0.75595,0 -0.17818,-0.178181 -0.17818,-0.577773 0,-0.755954 0.17818,-0.178178 0.50397,0 0.75595,0 1.25992,0 2.51984,0 3.77976,0 2.26786,0 4.53572,0 6.80357,0 0.25199,0 0.57778,-0.178178 0.75596,0 0.17818,0.178181 0,0.503971 0,0.755954 0,0.503968 0,1.007936 0,1.511904 0,1.007938 0,2.015873 0,3.023809 0,0.50397 0.12223,1.022985 0,1.511906 -0.13666,0.546629 -0.57777,0.977365 -0.75596,1.511906 -0.0797,0.239051 0.1127,0.530569 0,0.755951 -0.15936,0.318738 -0.64326,0.41788 -0.75595,0.755952 -0.15937,0.478107 0,1.007935 0,1.511906 0,0.251984 0.17818,0.57777 0,0.755951 -0.17818,0.178179 -0.57777,-0.178181 -0.75595,0 -0.17818,0.178179 0.17818,0.577774 0,0.755952 -0.17818,0.178181 -0.50397,0 -0.75595,0 -0.25199,0 -0.50397,0 -0.75595,0 -2.26786,0 -4.53572,0 -6.80358,0 -1.76388,0 -3.52777,0 -5.29166,0 -0.75596,0 -1.51191,0 -2.26786,0 -0.25198,0 -0.53057,0.112691 -0.75595,0 -0.31874,-0.159369 -0.43722,-0.596583 -0.75595,-0.755952 -0.78913,-0.394562 -0.72278,0.394563 -1.51191,0 -0.31874,-0.159369 -0.43721,-0.596582 -0.75595,-0.755951 -0.45076,-0.225383 -1.06114,0.22538 -1.51191,0 -0.31873,-0.159369 -0.43721,-0.596585 -0.75595,-0.755955 -0.22538,-0.112688 -0.50397,0 -0.75595,0 -0.25198,0 -0.50397,0 -0.75595,0 -0.25199,0 -0.53057,0.112692 -0.75596,0 -0.31873,-0.159366 -0.43721,-0.596582 -0.75595,-0.755951 -0.22538,-0.112692 -0.53057,0.112691 -0.75595,0 -0.31874,-0.159369 -0.43722,-0.596583 -0.75595,-0.755952 -0.22538,-0.112691 -0.50397,0 -0.75596,0 -0.25198,0 -0.50396,0 -0.75595,0 -0.25198,0 -0.53057,0.112692 -0.75595,0 -0.31874,-0.159369 -0.43721,-0.596585 -0.75595,-0.755951 -0.22538,-0.112692 -0.50397,0 -0.75595,0 -0.50397,0 -1.00794,0 -1.51191,0 -0.25198,0 -0.57777,0.178178 -0.75595,0 -1.00794,-1.007939 1.25992,-0.755955 -0.75595,-0.755955 -0.99608,0 -0.51583,0 -1.51191,0 -0.25198,0 -0.57777,0.178181 -0.75595,0 -0.17818,-0.178178 0.17818,-0.577773 0,-0.755951 -0.17818,-0.178181 -0.57777,0.178178 -0.75595,0 -0.35636,-0.35636 0.35636,-1.155547 0,-1.511906 -0.17818,-0.178179 -0.57778,0.178181 -0.75596,0 -0.35636,-0.35636 0.35636,-1.155544 0,-1.511903 -1.56409,-1.564093 0.0611,2.39014 -1.5119,-0.755952 -0.15767,-0.315349 0.17599,-1.335916 0,-1.511906 -0.50297,-0.50297 -1.00894,0.50297 -1.51191,0 -0.17817,-0.178181 0,-0.503968 0,-0.755952 -1.00793,-0.755954 -2.01587,-1.511905 -3.02381,-2.267857 z"
       id="path241"
       inkscape:connector-curvature="0" />
  </g>
</svg>
