<?xml version="1.0" encoding="UTF-8" standalone="no"?>
<!-- Created with Inkscape (http://www.inkscape.org/) -->

<svg
   xmlns:dc="http://purl.org/dc/elements/1.1/"
   xmlns:cc="http://creativecommons.org/ns#"
   xmlns:rdf="http://www.w3.org/1999/02/22-rdf-syntax-ns#"
   xmlns:svg="http://www.w3.org/2000/svg"
   xmlns="http://www.w3.org/2000/svg"
   xmlns:sodipodi="http://sodipodi.sourceforge.net/DTD/sodipodi-0.dtd"
   xmlns:inkscape="http://www.inkscape.org/namespaces/inkscape"
   width="210mm"
   height="297mm"
   viewBox="0 0 210 297"
   version="1.1"
   id="svg268"
   inkscape:version="0.92.5 (2060ec1f9f, 2020-04-08)"
   sodipodi:docname="dibujo-13.svg">
  <defs
     id="defs262" />
  <sodipodi:namedview
     id="base"
     pagecolor="#ffffff"
     bordercolor="#666666"
     borderopacity="1.0"
     inkscape:pageopacity="0.0"
     inkscape:pageshadow="2"
     inkscape:zoom="0.35"
     inkscape:cx="-208.57143"
     inkscape:cy="560"
     inkscape:document-units="mm"
     inkscape:current-layer="layer1"
     showgrid="false"
     inkscape:window-width="1440"
     inkscape:window-height="875"
     inkscape:window-x="1366"
     inkscape:window-y="0"
     inkscape:window-maximized="1" />
  <metadata
     id="metadata265">
    <rdf:RDF>
      <cc:Work
         rdf:about="">
        <dc:format>image/svg+xml</dc:format>
        <dc:type
           rdf:resource="http://purl.org/dc/dcmitype/StillImage" />
        <dc:title></dc:title>
      </cc:Work>
    </rdf:RDF>
  </metadata>
  <g
     inkscape:label="Capa 1"
     inkscape:groupmode="layer"
     id="layer1">
    <path
       style="fill:#280b0b;stroke:#000000;stroke-width:0.26458332px;stroke-linecap:butt;stroke-linejoin:miter;stroke-opacity:1"
       d="m 82.398808,171.5119 c 7.037827,1.00541 3.50987,0.75595 10.583333,0.75595 2.519842,0 5.039683,0 7.559529,0 7.55952,0 15.11904,0 22.67857,0 2.51984,0 5.03968,0 7.55952,0 0.50397,0 1.00794,0 1.5119,0 0.50397,0 1.0338,-0.15936 1.51191,0 0.33807,0.1127 0.43721,0.59659 0.75595,0.75596 0.22538,0.11269 0.50397,0 0.75595,0 0.50397,0 1.00794,0 1.51191,0 0.25198,0 0.53057,-0.11269 0.75595,0 0.31874,0.15937 0.41788,0.64326 0.75595,0.75595 0.47811,0.15937 1.01773,-0.0988 1.51191,0 0.10797,0.0216 4.46601,1.50319 4.53571,1.51191 1.25019,0.15627 2.52755,-0.13914 3.77976,0 1.03261,0.11473 2.0096,0.53056 3.02381,0.75595 1.25428,0.27873 2.50275,0.61406 3.77977,0.75595 1.00177,0.11131 2.01587,0 3.02381,0 2.26785,0 4.53571,0 6.80357,0 0,1.51191 0.16696,3.03306 0,4.53572 -0.088,0.79197 -0.50397,1.5119 -0.75595,2.26785 -0.25199,0.75596 -0.56269,1.49481 -0.75596,2.26786 -0.31162,1.24651 -0.3048,2.5767 -0.75595,3.77976 -0.31901,0.8507 -1.10559,1.45523 -1.5119,2.26786 -0.60417,1.20834 -1.18896,4.16136 -1.51191,5.29167 -0.21891,0.76618 -0.39959,1.55513 -0.75595,2.26785 -0.40631,0.81263 -1.10559,1.45524 -1.5119,2.26786 -0.35636,0.71272 -0.46002,1.52801 -0.75596,2.26786 -0.20926,0.52315 -0.54669,0.98875 -0.75595,1.5119 -0.29594,0.73985 -0.46001,1.52801 -0.75595,2.26786 -0.20926,0.52315 -0.6193,0.96527 -0.75595,1.5119 -1.3462,5.3848 2.28789,-3.82986 -0.75596,3.77977 -0.20926,0.52315 -0.50396,1.00793 -0.75595,1.5119 -0.50397,1.00794 -1.00794,2.01587 -1.5119,3.02381 -0.25199,0.50397 -0.54669,0.98875 -0.75596,1.5119 -0.61467,1.53669 -0.62548,2.45013 -1.5119,3.77977 -0.19767,0.29651 -0.55828,0.45944 -0.75595,0.75595 -0.31255,0.46882 -0.50397,1.00794 -0.75596,1.5119 -0.25198,0.50397 -0.61929,0.96528 -0.75595,1.51191 -0.12223,0.48892 0.12223,1.02298 0,1.5119 -0.54811,2.19244 -0.58977,0.88467 -1.5119,2.26786 -0.25199,0.50397 -0.50397,1.00794 -0.75596,1.51191 0,0.25198 0.1127,0.53057 0,0.75595 -0.15936,0.31874 -0.64326,0.41788 -0.75595,0.75595 -0.15937,0.47811 0.15937,1.0338 0,1.5119 -0.11269,0.33808 -0.64326,0.41788 -0.75595,0.75596 -0.15937,0.4781 0.15937,1.0338 0,1.5119 -0.11269,0.33807 -0.64326,0.41788 -0.75595,0.75595 -0.15937,0.47811 0.15937,1.0338 0,1.51191 -0.22538,0.67614 -1.28653,0.83576 -1.51191,1.5119 -0.15937,0.47811 0.15937,1.0338 0,1.51191 -0.93413,2.80239 -0.75595,-0.92147 -0.75595,1.5119 0,1.77285 0.17818,-0.35636 -0.75595,1.51191 -0.22538,0.45076 0.22538,1.06114 0,1.5119 -0.15937,0.31874 -0.59659,0.43722 -0.75595,0.75596 -0.1127,0.22538 0.11269,0.53057 0,0.75595 -0.15937,0.31874 -0.59659,0.43721 -0.75596,0.75595 -0.11269,0.22538 0.17818,0.57777 0,0.75595 -0.17818,0.17818 -0.57777,-0.17818 -0.75595,0 -0.17599,0.17599 0.15767,1.19656 0,1.51191 -0.15937,0.31873 -0.64326,0.41788 -0.75595,0.75595 -0.15937,0.47811 0,1.00794 0,1.5119 0,0.25199 0.11269,0.53058 0,0.75596 -0.15937,0.31873 -0.59659,0.43721 -0.75595,0.75595 -0.15768,0.31535 0.17599,1.33591 0,1.5119 -0.17818,0.17818 -0.50397,0 -0.75596,0 -2.62229,-3.55546 -4.35849,-7.67167 -6.80357,-11.33928 -0.69888,-1.04832 -1.66454,-1.91773 -2.26785,-3.02381 -0.91895,-1.68473 -1.30091,-3.63403 -2.26786,-5.29167 -1.45415,-1.81769 -3.33226,-3.94157 -4.53572,-6.04762 -0.5591,-0.97843 -1.06799,-1.98802 -1.5119,-3.02381 -0.31389,-0.73241 -0.34598,-1.58457 -0.75595,-2.26785 -0.36669,-0.61116 -1.08428,-0.94173 -1.51191,-1.51191 -0.67614,-0.90152 -0.83576,-2.12228 -1.5119,-3.02381 -0.42763,-0.57017 -1.08428,-0.94173 -1.51191,-1.5119 -0.33807,-0.45077 -0.4434,-1.04309 -0.75595,-1.51191 -0.19767,-0.29651 -0.55828,-0.45944 -0.75595,-0.75595 -0.31255,-0.46882 -0.41788,-1.06114 -0.75595,-1.5119 -0.42764,-0.57018 -1.08428,-0.94173 -1.51191,-1.51191 -0.33807,-0.45076 -0.41788,-1.06114 -0.75595,-1.5119 -0.42763,-0.57018 -1.00794,-1.00794 -1.51191,-1.51191 -0.50396,-0.50397 -1.00793,-1.00794 -1.5119,-1.5119 -0.50397,-0.50397 -1.08427,-0.94173 -1.51191,-1.51191 -1.65565,-2.20754 0.37735,-1.03991 -2.26785,-3.02381 -0.45077,-0.33807 -1.113486,-0.35753 -1.511908,-0.75595 -0.398422,-0.39842 -0.41788,-1.06114 -0.755952,-1.51191 -0.427632,-0.57017 -1.084274,-0.94173 -1.511905,-1.5119 -0.338072,-0.45076 -0.443405,-1.04308 -0.755953,-1.5119 -0.197672,-0.29651 -0.558279,-0.45945 -0.755952,-0.75596 -0.312548,-0.46882 -0.443405,-1.04308 -0.755952,-1.5119 -0.395346,-0.59302 -1.11656,-0.91889 -1.511905,-1.51191 -0.312548,-0.46882 -0.443405,-1.04308 -0.755953,-1.5119 -1.253589,-1.88039 -0.173702,-0.0868 -1.511904,-0.75595 -0.318738,-0.15937 -0.437215,-0.59659 -0.755953,-0.75596 -0.225381,-0.11269 -0.530571,0.11269 -0.755952,0 -0.318738,-0.15936 -0.503968,-0.50396 -0.755952,-0.75595 -0.251985,-0.25198 -0.596584,-0.43721 -0.755953,-0.75595 -0.112691,-0.22538 0.17818,-0.57777 0,-0.75595 -0.356359,-0.35636 -1.155545,0.35636 -1.511905,0 -0.498039,-0.49804 0.49804,-1.01387 0,-1.51191 -0.178179,-0.17818 -0.577772,0.17818 -0.755952,0 -0.17818,-0.17818 0.17818,-0.57777 0,-0.75595 -0.17818,-0.17818 -0.577773,0.17818 -0.755952,0 -0.17818,-0.17818 0,-0.50397 0,-0.75595 0,-1.00794 0,-2.01588 0,-3.02381 0,-0.25199 0.178179,-0.57778 0,-0.75595 -0.17818,-0.17818 -0.577773,0.17817 -0.755953,0 -0.178179,-0.17818 0,-0.50397 0,-0.75596 0,-1.00793 0,-2.01587 0,-3.02381 0,-0.25198 0.17818,-0.57777 0,-0.75595 -0.178179,-0.17818 -0.577772,0.17818 -0.755952,0 -0.17818,-0.17818 0.17818,-0.57777 0,-0.75595 -0.17818,-0.17818 -0.577773,0.17818 -0.755952,0 -0.17818,-0.17818 0,-0.50397 0,-0.75595 0,-0.75596 0,-1.51191 0,-2.26786 0,-2.01587 0.251984,0.25198 -0.755953,-0.75595 -0.17818,-0.17818 0,-0.50397 0,-0.75596 0,-1.55279 -0.07968,-0.51689 0.755951,-3.02381 z"
       id="path276"
       inkscape:connector-curvature="0" />
    <path
       style="fill:#241c1c;stroke:#000000;stroke-width:0.26458332px;stroke-linecap:butt;stroke-linejoin:miter;stroke-opacity:1"
       d="m 108.10119,170 c 0.82028,-4.10142 0.49188,-3.65238 2.26786,-7.55952 0.69947,-1.53885 1.60199,-2.98203 2.26785,-4.53572 0.83491,-1.94812 4.11011,-11.04235 4.53572,-12.85119 0.49896,-2.12061 1.13813,-10.98233 1.5119,-12.85119 2.18199,-10.90995 1.16731,2.27869 2.26786,-9.82738 0.0912,-1.0038 0,-2.01587 0,-3.02381 0,-1.25992 0,-2.51984 0,-3.77976 0,-4.7877 0,-9.5754 0,-14.3631 0,-0.75595 0,-1.511903 0,-2.267854 0,-0.251984 -0.17818,-0.577773 0,-0.755954 0.17818,-0.178179 0.50397,0 0.75595,0 0.75595,0 1.51191,0 2.26786,0 5.05537,0 2.02365,-0.125019 9.07143,0.755954 2.01587,0.251984 4.04697,0.402897 6.04762,0.755951 2.28783,0.403733 4.5255,1.056293 6.80357,1.511903 1.43552,0.28711 6.69394,1.02545 8.31547,1.51191 1.29975,0.38992 2.53251,0.97736 3.77977,1.5119 0.51789,0.22196 0.95939,0.64545 1.5119,0.75595 5.36176,0 0.44283,-0.53454 3.02381,0.75596 0.31535,0.15767 1.33591,-0.17599 1.5119,0 0.52137,0.52136 -0.55914,1.4135 -0.75595,1.5119 -0.22538,0.11269 -0.57777,-0.17818 -0.75595,0 -0.39842,0.39842 -0.41788,1.06114 -0.75595,1.5119 -2.24426,2.99234 -0.80427,0.0483 -3.77976,3.02382 -0.64244,0.64243 -0.86947,1.62542 -1.51191,2.26785 -0.8909,0.8909 -2.05591,1.46128 -3.02381,2.26786 -0.54752,0.45627 -1.00793,1.00794 -1.5119,1.5119 -0.50397,0.50397 -1.08428,0.94173 -1.51191,1.51191 -0.33807,0.45076 -0.4434,1.04308 -0.75595,1.5119 -0.19767,0.29651 -0.50397,0.50397 -0.75595,0.75596 -0.25199,0.25198 -0.50397,0.50396 -0.75596,0.75595 -0.25198,0.25198 -0.59658,0.43721 -0.75595,0.75595 -0.11269,0.22538 0.11269,0.53057 0,0.75595 -0.15937,0.31874 -0.59658,0.43722 -0.75595,0.75595 -0.11269,0.22539 0.11269,0.53058 0,0.75596 -0.15937,0.31873 -0.50397,0.50397 -0.75595,0.75595 -0.50397,0.50397 -1.00794,1.00794 -1.51191,1.51191 -0.25198,0.25198 -0.59658,0.43721 -0.75595,0.75595 -0.11269,0.22538 0.11269,0.53057 0,0.75595 -0.15937,0.31874 -0.59658,0.43722 -0.75595,0.75595 -0.11269,0.22538 0.11269,0.53057 0,0.75596 -0.15937,0.31873 -0.50397,0.50396 -0.75595,0.75595 -0.25199,0.25198 -0.50397,0.50396 -0.75596,0.75595 -0.25198,0.25198 -0.59658,0.43721 -0.75595,0.75595 -0.11269,0.22538 0.11269,0.53057 0,0.75595 -0.15937,0.31874 -0.59658,0.43722 -0.75595,0.75596 -0.11269,0.22538 0.11269,0.53057 0,0.75595 -0.15937,0.31874 -0.50397,0.50397 -0.75595,0.75595 -0.25199,0.25199 -0.50397,0.50397 -0.75596,0.75595 -0.25198,0.25199 -0.55828,0.45945 -0.75595,0.75596 -0.25198,0.50396 -0.50397,1.00793 -0.75595,1.5119 0,0.25199 0.11269,0.53057 0,0.75595 -0.10851,0.21701 -1.45563,1.34309 -1.51191,1.51191 -0.15937,0.4781 0.15937,1.0338 0,1.5119 -0.11269,0.33808 -0.50396,0.50397 -0.75595,0.75596 -0.25198,0.25198 -0.50397,0.50396 -0.75595,0.75595 -0.25199,0.25198 -0.64326,0.41788 -0.75595,0.75595 -0.15937,0.47811 0.15937,1.0338 0,1.51191 -0.0563,0.16881 -1.4034,1.29489 -1.51191,1.5119 -0.11269,0.22538 0.11269,0.53057 0,0.75595 -0.15937,0.31874 -0.55828,0.45944 -0.75595,0.75595 -0.31255,0.46882 -0.35753,1.11349 -0.75595,1.51191 -0.39843,0.39842 -1.11349,0.35753 -1.51191,0.75595 -0.39842,0.39842 -0.50397,1.00794 -0.75595,1.51191 -0.25198,0.50396 -0.4434,1.04308 -0.75595,1.5119 -2.50718,2.50718 0.35636,-0.71272 -0.75595,1.5119 -0.15937,0.31874 -0.59659,0.43722 -0.75596,0.75596 -0.11269,0.22538 0.11269,0.53057 0,0.75595 -0.15936,0.31874 -0.59658,0.43721 -0.75595,0.75595 -0.15767,0.31535 0.17599,1.33592 0,1.51191 -0.17818,0.17818 -0.57777,-0.17818 -0.75595,0 -0.17818,0.17818 0.17818,0.57777 0,0.75595 -0.17818,0.17818 -0.57777,-0.17818 -0.75595,0 -0.17818,0.17818 0,0.50397 0,0.75595 -0.25199,0 -0.53057,-0.11269 -0.75596,0 -0.93413,0.46707 -0.75595,0.72986 -0.75595,1.51191 0,0.25198 0.17818,0.57777 0,0.75595 -0.17818,0.17818 -0.57777,-0.17818 -0.75595,0 -0.17818,0.17818 0.17818,0.57777 0,0.75595 -0.17818,0.17818 -0.57777,-0.17818 -0.75595,0 -0.17818,0.17818 0.17818,0.57777 0,0.75595 -0.17818,0.17818 -0.57777,-0.17818 -0.75596,0 -0.17817,0.17818 0.17819,0.57778 0,0.75596 -0.17817,0.17818 -0.57777,-0.17818 -0.75595,0 -0.17818,0.17818 0.17818,0.57777 0,0.75595 -0.17818,0.17818 -0.57777,-0.17818 -0.75595,0 -0.35636,0.35636 0.35636,1.15554 0,1.5119 -0.35636,0.35636 -1.15555,-0.35636 -1.5119,0 -0.17819,0.17818 0.17818,0.57778 0,0.75595 -0.17819,0.17819 -0.50397,0 -0.75596,0 -0.25198,0 -0.50396,0 -0.75595,0 -0.75595,0 -1.5119,0 -2.26786,0 -0.25198,0 -0.50397,0 -0.75595,0 -0.25198,0 -0.50886,-0.0494 -0.75595,0 -1.01878,0.20376 -2.01588,0.50397 -3.02381,0.75596 z"
       id="path284"
       inkscape:connector-curvature="0" />
    <rect
       style="fill:#241c1c;stroke:#800000;stroke-width:0.26458332;stroke-opacity:0.63681593"
       id="rect286"
       width="9.0714293"
       height="12.851191"
       x="108.1012"
       y="170" />
    <rect
       style="fill:#241c1c;stroke:#800000;stroke-width:0.26458332;stroke-opacity:0.63681593"
       id="rect288"
       width="18.898804"
       height="27.970245"
       x="108.1012"
       y="154.88095" />
  </g>
</svg>
