<?xml version="1.0" encoding="UTF-8" standalone="no"?>
<!-- Created with Inkscape (http://www.inkscape.org/) -->

<svg
   xmlns:dc="http://purl.org/dc/elements/1.1/"
   xmlns:cc="http://creativecommons.org/ns#"
   xmlns:rdf="http://www.w3.org/1999/02/22-rdf-syntax-ns#"
   xmlns:svg="http://www.w3.org/2000/svg"
   xmlns="http://www.w3.org/2000/svg"
   xmlns:sodipodi="http://sodipodi.sourceforge.net/DTD/sodipodi-0.dtd"
   xmlns:inkscape="http://www.inkscape.org/namespaces/inkscape"
   width="210mm"
   height="297mm"
   viewBox="0 0 210 297"
   version="1.1"
   id="svg194"
   inkscape:version="0.92.5 (2060ec1f9f, 2020-04-08)"
   sodipodi:docname="dibujo-11.svg">
  <defs
     id="defs188" />
  <sodipodi:namedview
     id="base"
     pagecolor="#ffffff"
     bordercolor="#666666"
     borderopacity="1.0"
     inkscape:pageopacity="0.0"
     inkscape:pageshadow="2"
     inkscape:zoom="0.35"
     inkscape:cx="-208.57143"
     inkscape:cy="560"
     inkscape:document-units="mm"
     inkscape:current-layer="layer1"
     showgrid="false"
     inkscape:window-width="1440"
     inkscape:window-height="875"
     inkscape:window-x="1366"
     inkscape:window-y="0"
     inkscape:window-maximized="1" />
  <metadata
     id="metadata191">
    <rdf:RDF>
      <cc:Work
         rdf:about="">
        <dc:format>image/svg+xml</dc:format>
        <dc:type
           rdf:resource="http://purl.org/dc/dcmitype/StillImage" />
        <dc:title></dc:title>
      </cc:Work>
    </rdf:RDF>
  </metadata>
  <g
     inkscape:label="Capa 1"
     inkscape:groupmode="layer"
     id="layer1">
    <path
       style="fill:#280b0b;stroke:#000000;stroke-width:0.26458332px;stroke-linecap:butt;stroke-linejoin:miter;stroke-opacity:1"
       d="m 30.994048,114.05952 c 1.989926,0.41673 4.047313,-0.25004 6.047618,0 1.274951,0.15937 2.498675,0.65741 3.779761,0.75596 2.009937,0.15461 4.041751,-0.20059 6.047621,0 3.050305,0.30503 6.014937,1.27679 9.071427,1.5119 3.517387,0.27057 7.055557,0 10.583334,0 9.827381,0 19.654764,0 29.482144,0 5.039677,0 10.079357,0 15.119047,0 3.0238,0 6.04761,0 9.07142,0 0.75596,0 1.51951,-0.10691 2.26786,0 1.02852,0.14693 1.9953,0.60902 3.02381,0.75595 0.74836,0.10691 1.52219,-0.12427 2.26786,0 0.786,0.131 1.50167,0.53705 2.26785,0.75595 0.99899,0.28543 2.0096,0.53058 3.02381,0.75596 1.25428,0.27873 2.52549,0.47722 3.77977,0.75595 1.01421,0.22538 2.00959,0.53057 3.02381,0.75595 1.25427,0.27873 2.56082,0.34964 3.77976,0.75596 1.06908,0.35636 1.95473,1.15554 3.02381,1.5119 1.21893,0.40631 2.5767,0.3048 3.77976,0.75595 0.85069,0.31901 1.48879,1.04447 2.26786,1.51191 3.30265,1.98159 -0.54721,-0.65158 3.77976,1.5119 0.40237,0.20119 1.10953,1.31072 1.5119,1.51191 0.22538,0.11269 0.50397,0 0.75596,0 -0.50397,-1.25992 -1.18279,-2.4633 -1.51191,-3.77976 -0.18334,-0.73339 0.0938,-1.51775 0,-2.26786 -0.15937,-1.27495 -0.50397,-2.51984 -0.75595,-3.77976 -0.38091,-1.90457 -1.35071,-6.54231 -1.5119,-8.31548 -0.11407,-1.25475 0.22538,-2.54016 0,-3.77976 -0.28509,-1.56798 -1.22682,-2.96774 -1.51191,-4.53572 -0.22538,-1.239594 0.10463,-2.52419 0,-3.779758 -0.14797,-1.775642 -0.50397,-3.527778 -0.75595,-5.291667 -0.25199,-1.763889 -0.52047,-3.5255 -0.75595,-5.291666 -0.2685,-2.01374 -0.19784,-4.094225 -0.75596,-6.04762 -0.46437,-1.625322 -1.77074,-2.920102 -2.26785,-4.535714 -0.52401,-1.703004 -0.23195,-3.588662 -0.75596,-5.291666 -4.63077,-9.261558 -0.57702,-0.159531 -3.02381,-8.315477 -3.12687,-10.422909 0.0962,1.232332 -3.02381,-6.047619 -0.40926,-0.954952 -0.47052,-2.024827 -0.75595,-3.023809 -0.21891,-0.766185 -0.50397,-1.511905 -0.75595,-2.267857 -0.25198,-0.755953 -0.50397,-1.511905 -0.75595,-2.267858 -0.25199,-0.755952 -0.59968,-1.486487 -0.75595,-2.267857 -0.0988,-0.494181 0.12223,-1.022983 0,-1.511904 -0.13666,-0.546631 -0.6193,-0.965275 -0.75596,-1.511905 -0.24446,-0.977842 0.24446,-2.045968 0,-3.02381 -0.13665,-0.54663 -0.57777,-0.977365 -0.75595,-1.511904 -0.0797,-0.239054 0,-0.503969 0,-0.755953 0,-0.251984 0.17818,-0.577773 0,-0.755952 -0.17818,-0.17818 -0.75595,0.251984 -0.75595,0 0,-0.251984 0.50397,0 0.75595,0 -2.47444,0.729278 -5.05914,-0.312548 -7.55952,0 -1.27495,0.159369 -2.5278,0.467036 -3.77977,0.755952 -2.0247,0.467239 -4.12621,0.720739 -6.04761,1.511905 -2.39893,0.987793 -4.43284,2.726102 -6.80358,3.779762 -2.18449,0.970887 -4.57558,1.401418 -6.80357,2.267857 -19.070747,7.416406 3.60727,-0.747757 -12.095237,5.291667 -1.48746,0.5721 -3.03797,0.967273 -4.53571,1.511904 -2.55055,0.927475 -5.01837,2.070878 -7.55952,3.02381 -1.492219,0.559581 -3.056016,0.920024 -4.535718,1.511905 -0.523153,0.209261 -1.007936,0.503968 -1.511904,0.755952 -1.007937,0.503968 -2.015873,1.007937 -3.02381,1.511905 -0.503968,0.251984 -0.988751,0.546691 -1.511905,0.755952 -0.739851,0.295941 -1.528006,0.460012 -2.267857,0.755953 -0.523153,0.209261 -0.988751,0.546691 -1.511905,0.755952 -2.163481,0.865393 -2.006919,0.448199 -3.779761,1.511905 -0.779069,0.467441 -1.48879,1.044464 -2.267858,1.511904 -0.483157,0.289895 -1.061141,0.417881 -1.511904,0.755953 -0.570175,0.427631 -0.94173,1.084273 -1.511905,1.511905 0.08609,1.432096 -1.763889,0.503968 -2.267857,0.755952 -0.318738,0.159369 -0.503969,0.503968 -0.755953,0.755952 -0.251984,0.251985 -0.596583,0.437215 -0.755952,0.755953 -0.521364,1.042728 0.9155,0.676178 -0.755952,1.511905 -0.225382,0.11269 -0.530571,-0.112691 -0.755953,0 -0.318737,0.159368 -0.437215,0.596583 -0.755952,0.755952 -0.225382,0.112691 -0.577773,-0.17818 -0.755953,0 -0.178179,0.17818 0.112691,0.530571 0,0.755952 -0.159368,0.318738 -0.503968,0.503969 -0.755952,0.755953 -0.755952,0.755952 -1.511905,1.511904 -2.267857,2.267857 -0.251984,0.251984 -0.596584,0.437215 -0.755952,0.755952 -0.112691,0.225382 0.178179,0.577773 0,0.755953 -0.17818,0.178179 -0.577773,-0.17818 -0.755953,0 -0.17818,0.178179 0.112691,0.53057 0,0.755952 -0.108506,0.217012 -1.455633,1.343089 -1.511905,1.511905 -0.159368,0.478106 0.159369,1.033798 0,1.511904 -0.11269,0.338073 -0.503968,0.503969 -0.755952,0.755953 -0.251984,0.251984 -0.503968,0.503968 -0.755952,0.755952 -0.251985,0.251984 -0.596584,0.437215 -0.755953,0.755953 -0.225381,0.450763 0.225382,1.061141 0,1.511904 -0.159369,0.318738 -0.596583,0.437215 -0.755952,0.755953 -0.225382,0.450763 0.225381,1.061142 0,1.511905 -1.729849,3.459697 0.313321,-3.207821 -1.511905,2.267857 -0.07968,0.239053 0.07968,0.516899 0,0.755952 -0.03032,0.09096 -1.496592,2.962558 -1.511905,3.02381 -0.12223,0.488921 0.122231,1.022983 0,1.511904 -0.548109,2.192438 -0.589775,0.884664 -1.511904,2.267857 -0.312548,0.468822 -0.577773,0.977366 -0.755953,1.511905 -0.07968,0.239053 0.112691,0.530571 0,0.755953 -1.729848,3.459693 0.313321,-3.207821 -1.511905,2.267853 -0.07968,0.23906 0.17818,0.57778 0,0.75596 -0.178179,0.17818 -0.577772,-0.17818 -0.755952,0 -0.17818,0.17818 0.17818,0.57777 0,0.75595 -0.17818,0.17818 -0.577773,-0.17818 -0.755952,0 -0.17818,0.17818 0.178179,0.57777 0,0.75595 -0.17818,0.17818 -0.577773,-0.17818 -0.755953,0 -0.178179,0.17818 0.112691,0.53057 0,0.75595 -0.108506,0.21702 -1.455633,1.34309 -1.511904,1.51191 -0.159369,0.4781 0.159368,1.0338 0,1.5119 -0.112691,0.33807 -0.503969,0.50397 -0.755953,0.75595 -0.251984,0.25199 -0.437215,0.59659 -0.755952,0.75596 -0.225382,0.11269 -0.577773,-0.17818 -0.755953,0 -0.178179,0.17818 0.17818,0.57777 0,0.75595 -0.178179,0.17818 -0.577772,-0.17818 -0.755952,0 -0.17818,0.17818 0.17818,0.57777 0,0.75595 -0.17818,0.17818 -0.577773,-0.17818 -0.755952,0 -0.17818,0.17818 0,0.50397 0,0.75596 0,0.25198 0,0.50396 0,0.75595"
       id="path196"
       inkscape:connector-curvature="0" />
    <path
       style="fill:#782121;stroke:#000000;stroke-width:0.26458332px;stroke-linecap:butt;stroke-linejoin:miter;stroke-opacity:1"
       d="m 30.994048,114.05952 c 1.259919,0.75595 2.740803,1.2289 3.779761,2.26786 0.784759,0.78476 -0.652005,2.50407 -0.755952,3.02381 -0.148254,0.74127 0.106908,1.5195 0,2.26786 -0.293862,2.05703 -1.254173,3.98575 -1.511906,6.04762 -1.299437,10.39551 1.583894,-4.48169 -0.755951,6.04761 -0.278728,1.25428 -0.477224,2.52549 -0.755952,3.77977 -0.433369,1.95015 -1.336522,4.87436 -1.511906,6.80357 -0.136882,1.50569 0,3.02381 0,4.53571 0,2.51984 0,5.03968 0,7.55952 0,8.31548 0,16.63096 0,24.94643 0,8.0635 0,16.12699 0,24.19048 0,3.02381 0,6.04762 0,9.07143 0,1.76389 -0.135284,3.53297 0,5.29166 0.279178,3.62931 0.806297,5.10005 2.267858,8.31548 0.699476,1.53885 1.690187,2.94712 2.267857,4.53571 0.439095,1.20752 0.349639,2.56083 0.755952,3.77977 1.471075,4.41322 1.842095,1.9594 3.779763,6.80357 0.477189,1.19297 0.304803,2.5767 0.755952,3.77976 0.31901,0.85069 1.154012,1.43277 1.511903,2.26786 0.409265,0.95495 0.391152,2.051 0.755954,3.02381 0.395682,1.05515 1.067993,1.98802 1.511903,3.02381 0.313894,0.73241 0.503968,1.5119 0.755955,2.26785 0.251984,0.75596 0.503967,1.51191 0.755951,2.26786 0.251984,0.75595 0.503968,1.5119 0.755952,2.26786 0.251984,0.75595 0.34598,1.58457 0.755952,2.26785 0.366691,0.61115 1.145214,0.90077 1.511905,1.5119 0.409972,0.68329 0.399593,1.55514 0.755952,2.26788 0.406313,0.81261 1.044464,1.48878 1.511906,2.26785 0.894789,1.49129 0.874697,2.38659 2.267857,3.77976 0.642435,0.64243 1.558404,0.94435 2.267858,1.5119 0.04402,0.0352 2.98849,2.99731 3.023809,3.02382 0.450763,0.33806 1.061141,0.41786 1.511903,0.75594 1.140352,0.85527 1.88346,2.16855 3.023809,3.02382 2.207546,1.65566 1.039911,-0.37735 3.023812,2.26785 0.338071,0.45077 0.357529,1.11347 0.755952,1.51191 0.398422,0.39841 1.043082,0.44339 1.511903,0.75594 0.296511,0.19767 0.459444,0.5583 0.755954,0.75597 0.468821,0.31255 1.043083,0.44338 1.511903,0.75594 0.296511,0.19767 0.459444,0.55827 0.755955,0.75596 0.46882,0.31253 1.007935,0.50396 1.511903,0.75595 0.503968,0.25198 0.965274,0.61928 1.511906,0.75594 0.488921,0.12223 1.033798,-0.15936 1.511903,0 0.338074,0.11271 0.41788,0.64328 0.755954,0.75596 0.478105,0.15936 1.033799,-0.15938 1.511904,0 0.338071,0.11269 0.437216,0.59659 0.755951,0.75594 0.225383,0.11269 0.530572,-0.11268 0.755954,0 0.318736,0.15939 0.417881,0.64329 0.755952,0.75597 0.478107,0.15936 1.033799,-0.15938 1.511906,0 0.338071,0.11269 0.437213,0.59658 0.755951,0.75594 0.225381,0.11269 0.516898,-0.0797 0.755952,0 0.53454,0.17817 0.965274,0.61931 1.511906,0.75597 0.977842,0.24445 2.045967,-0.24447 3.023809,0 0.546629,0.13666 0.959392,0.64545 1.511903,0.75594 0.741273,0.14825 1.511906,0 2.267858,0 0.503968,0 1.017725,-0.0989 1.511906,0 0.78137,0.15626 1.486487,0.59968 2.267857,0.75594 0.494181,0.0988 1.007936,0 1.511903,0 0.503968,0 1.007939,0 1.511906,0 1.25992,0 2.519844,0 3.779764,0 5.29166,0 10.58333,0 15.875,0 2.77182,0 5.54365,0 8.31547,0 0.75596,0 1.51191,0 2.26786,0 0.25198,0 0.53057,0.11272 0.75595,0 0.63748,-0.31871 0.87443,-1.19316 1.51191,-1.51188 0.22538,-0.11271 0.57777,0.17817 0.75595,0 0.17818,-0.1782 -0.17818,-0.5778 0,-0.75597 1.00794,-1.00793 0.72538,1.60362 1.5119,-0.75594 0.15937,-0.4781 -0.15936,-1.0338 0,-1.51191 0.1127,-0.33808 0.55828,-0.45945 0.75596,-0.75596 0.31255,-0.46882 0.50396,-1.00793 0.75595,-1.51189 0.25198,-0.50397 0.50397,-1.00795 0.75595,-1.5119 0.25199,-0.50398 0.50397,-1.00796 0.75595,-1.51191 0.25199,-0.50398 0.64546,-0.95941 0.75596,-1.51191 0.14825,-0.74128 -0.12428,-1.5222 0,-2.26785 0.131,-0.786 0.50397,-1.51191 0.75595,-2.26788 0.25198,-0.75594 0.50397,-1.51188 0.75595,-2.26785 0.25199,-0.75594 0.62495,-1.48185 0.75595,-2.26785 0.12428,-0.74567 -0.12427,-1.5222 0,-2.26785 0.84491,-5.06944 0.667,0.53372 1.51191,-4.53572 0.12428,-0.74568 -0.12428,-1.5222 0,-2.26785 0.131,-0.786 0.62495,-1.48185 0.75595,-2.26787 0.24856,-1.49133 -0.24855,-3.04438 0,-4.53571 0.131,-0.786 0.50397,-1.5119 0.75595,-2.26786 0.25199,-0.75595 0.46001,-1.528 0.75596,-2.26785 0.20926,-0.52316 0.64544,-0.9594 0.75595,-1.51191 0.14825,-0.74127 -0.14826,-1.52658 0,-2.26786 0.1105,-0.55251 0.64545,-0.95939 0.75595,-1.5119 0.14825,-0.74127 0,-1.51191 0,-2.26786 0,-0.50397 -0.15937,-1.0338 0,-1.5119 0.11269,-0.33807 0.64326,-0.41788 0.75595,-0.75596 0.0463,-0.13882 -0.0456,-2.8415 0,-3.0238 0.13666,-0.54664 0.6193,-0.96528 0.75596,-1.51191 0.49803,-1.99216 -0.49804,-1.03165 0,-3.02381 0.13665,-0.54663 0.57777,-0.97736 0.75595,-1.5119 0.0797,-0.23906 -0.0797,-0.5169 0,-0.75596 0.17818,-0.53453 0.57777,-0.97736 0.75595,-1.5119 0.0797,-0.23905 0,-0.50397 0,-0.75595 0,-1.25992 0,-2.51984 0,-3.77976 0,-3.02381 0,-6.04762 0,-9.07143 0,-0.75596 0,-1.51191 0,-2.26786 0,-0.50397 -0.15937,-1.0338 0,-1.51191 0.11269,-0.33807 0.64326,-0.41788 0.75595,-0.75595 0.0463,-0.13882 -0.0456,-2.8415 0,-3.02381 0.13666,-0.54663 0.50397,-1.00793 0.75595,-1.5119 0,-0.75595 -0.14825,-1.52659 0,-2.26786 0.11051,-0.55251 0.6193,-0.96527 0.75596,-1.5119 0.12223,-0.48892 -0.12223,-1.02299 0,-1.51191 0.13665,-0.54663 0.61929,-0.96527 0.75595,-1.5119 0.12223,-0.48892 -0.0988,-1.01773 0,-1.51191 0.15627,-0.78137 0.59968,-1.48649 0.75595,-2.26786 0.0988,-0.49418 -0.12223,-1.02298 0,-1.5119 0.13666,-0.54663 0.6193,-0.96527 0.75595,-1.5119 0.12223,-0.48893 0,-1.00794 0,-1.51191 0,-0.75595 -0.18334,-1.53448 0,-2.26786 0.0864,-0.34572 0.64327,-0.41788 0.75596,-0.75595 0.15936,-0.4781 0,-1.00794 0,-1.5119 0,-1.51191 0,-3.02381 0,-4.53572 0,-0.50397 -0.15937,-1.0338 0,-1.5119 0.11269,-0.33808 0.59658,-0.43722 0.75595,-0.75596 0.11269,-0.22538 0,-0.50396 0,-0.75595 0,-0.25198 0,-0.50396 0,-0.75595 0,-0.25198 -0.11269,-0.53057 0,-0.75595 0.15937,-0.31874 0.64326,-0.41788 0.75595,-0.75595 0.15937,-0.47811 -0.12223,-1.02299 0,-1.51191 0.13666,-0.54663 0.57777,-0.97737 0.75595,-1.5119 0.0797,-0.23906 0,-0.50397 0,-0.75596 0,-0.50397 0,-1.00793 0,-1.5119 0,-0.50397 -0.15937,-1.0338 0,-1.5119 1.11232,-3.33694 0.75596,2.7465 0.75596,-2.26786 0,-0.50397 0,-1.00794 0,-1.51191 0,-0.25198 -0.11269,-0.53057 0,-0.75595 0.15936,-0.31874 0.64326,-0.41788 0.75595,-0.75595 0.0463,-0.13883 -0.0456,-2.8415 0,-3.02381 0.13666,-0.54663 0.61929,-0.96528 0.75595,-1.51191 0.0456,-0.1823 -0.0463,-2.88498 0,-3.0238 0.11269,-0.33808 0.64326,-0.41789 0.75595,-0.75596 0.15937,-0.4781 -0.15936,-1.0338 0,-1.5119 0.11269,-0.33808 0.64327,-0.41788 0.75596,-0.75595 0.15937,-0.47811 0,-1.00794 0,-1.51191 0,-0.75595 0,-1.51191 0,-2.26786 0,-0.25198 0,-0.50397 0,-0.75595 0,-0.25198 -0.11269,-0.53057 0,-0.75595 0.15937,-0.31874 0.59658,-0.43722 0.75595,-0.75595 0.11269,-0.22538 0,-0.50397 0,-0.75596 0,-0.50396 0,-1.00793 0,-1.5119 0,-1.76389 0,-3.52778 0,-5.29167 0,-4.03174 0,-8.06349 0,-12.09524 0,-0.25198 0,-0.50396 0,-0.75595 0,-0.25198 0.17818,-0.57777 0,-0.75595 -0.17818,-0.17818 -0.57778,0.17818 -0.75595,0 -0.17818,-0.17818 0,-0.50397 0,-0.75595 0,-0.75595 0,-1.51191 0,-2.26786 0,-0.25198 0.17817,-0.57777 0,-0.75595 -0.17818,-0.17818 -0.57778,0.17818 -0.75596,0 -0.17818,-0.17818 0,-0.50397 0,-0.75595 0,-0.25199 0,-0.50397 0,-0.75596 0,-0.25198 0.17818,-0.57777 0,-0.75595 -0.17818,-0.17818 -0.57777,0.17818 -0.75595,0 -0.17818,-0.17818 0.17818,-0.57777 0,-0.75595 -0.17818,-0.17818 -0.50397,0 -0.75595,0 -0.25198,0 -0.57777,-0.17818 -0.75595,0 -0.17818,0.17818 -0.17818,0.57777 0,0.75595 0.35636,0.35636 1.15554,-0.35636 1.5119,0 0.17818,0.17818 -0.17818,0.57777 0,0.75595 0.17818,0.17818 0.50397,0 0.75595,0 0.25199,0 0.50397,0 0.75596,0 0.25198,0 0.57777,-0.17818 0.75595,0 0.17818,0.17818 0,0.50397 0,0.75596"
       id="path208"
       inkscape:connector-curvature="0" />
  </g>
</svg>
