<?xml version="1.0" encoding="UTF-8" standalone="no"?>
<!-- Created with Inkscape (http://www.inkscape.org/) -->

<svg
   xmlns:dc="http://purl.org/dc/elements/1.1/"
   xmlns:cc="http://creativecommons.org/ns#"
   xmlns:rdf="http://www.w3.org/1999/02/22-rdf-syntax-ns#"
   xmlns:svg="http://www.w3.org/2000/svg"
   xmlns="http://www.w3.org/2000/svg"
   xmlns:sodipodi="http://sodipodi.sourceforge.net/DTD/sodipodi-0.dtd"
   xmlns:inkscape="http://www.inkscape.org/namespaces/inkscape"
   width="210mm"
   height="297mm"
   viewBox="0 0 210 297"
   version="1.1"
   id="svg130"
   inkscape:version="0.92.5 (2060ec1f9f, 2020-04-08)"
   sodipodi:docname="dibujo-3.svg">
  <defs
     id="defs124" />
  <sodipodi:namedview
     id="base"
     pagecolor="#ffffff"
     bordercolor="#666666"
     borderopacity="1.0"
     inkscape:pageopacity="0.0"
     inkscape:pageshadow="2"
     inkscape:zoom="0.35"
     inkscape:cx="-211.42857"
     inkscape:cy="560"
     inkscape:document-units="mm"
     inkscape:current-layer="layer1"
     showgrid="false"
     inkscape:window-width="1440"
     inkscape:window-height="875"
     inkscape:window-x="1366"
     inkscape:window-y="0"
     inkscape:window-maximized="1" />
  <metadata
     id="metadata127">
    <rdf:RDF>
      <cc:Work
         rdf:about="">
        <dc:format>image/svg+xml</dc:format>
        <dc:type
           rdf:resource="http://purl.org/dc/dcmitype/StillImage" />
        <dc:title></dc:title>
      </cc:Work>
    </rdf:RDF>
  </metadata>
  <g
     inkscape:label="Capa 1"
     inkscape:groupmode="layer"
     id="layer1">
    <ellipse
       style="fill:#00ffff;stroke:#ff0000;stroke-width:0.26458332;stroke-opacity:0.63681593"
       id="path132"
       cx="102.43154"
       cy="155.6369"
       rx="57.830357"
       ry="55.184521" />
    <path
       style="fill:#b3b3b3;stroke:#000000;stroke-width:0.26458332px;stroke-linecap:butt;stroke-linejoin:miter;stroke-opacity:1"
       d="m 92.22619,206.28571 c 1.473284,-7.36642 -0.08477,-1.29997 1.511903,-5.29167 0.295942,-0.73984 0.460012,-1.528 0.755954,-2.26785 0.209262,-0.52316 0.619295,-0.96528 0.755952,-1.51191 0.122229,-0.48892 -0.12223,-1.02298 0,-1.5119 0.136657,-0.54663 0.503968,-1.00794 0.755951,-1.51191 0.503968,-1.00793 1.007939,-2.01587 1.511906,-3.0238 0.251984,-0.50397 0.54669,-0.98876 0.755952,-1.51191 0.435591,-1.08898 0.752115,-2.76671 1.511906,-3.77976 0.427626,-0.57018 1.007936,-1.00794 1.511906,-1.51191 0.25198,-0.75595 0.34598,-1.58457 0.75595,-2.26785 0.36669,-0.61115 1.14521,-0.90076 1.5119,-1.51191 0.40998,-0.68329 0.34598,-1.58457 0.75596,-2.26786 0.36669,-0.61115 1.14521,-0.90075 1.5119,-1.5119 1.52457,-2.54095 -0.0179,-1.74001 1.51191,-3.77976 3.26971,-3.26972 0.11847,0.20026 2.26785,-3.02381 0.19768,-0.29651 0.64327,-0.41788 0.75596,-0.75596 0.15937,-0.4781 0,-1.00793 0,-1.5119 0,-0.25198 -0.11269,-0.53057 0,-0.75595 0.15937,-0.31874 0.59658,-0.43722 0.75595,-0.75595 0.11269,-0.22538 0,-0.50397 0,-0.75596 0,-0.50396 -0.15937,-1.03379 0,-1.5119 0.0563,-0.16882 1.4034,-1.29489 1.5119,-1.5119 0.11269,-0.22539 -0.17818,-0.57778 0,-0.75596 0.17818,-0.17818 0.57778,0.17818 0.75596,0 0.17817,-0.17818 -0.1127,-0.53057 0,-0.75595 0.15937,-0.31874 0.59658,-0.43721 0.75595,-0.75595 0.22538,-0.45077 -0.22538,-1.06115 0,-1.51191 0.15937,-0.31874 0.43721,-0.59658 0.75595,-0.75595 0.22538,-0.11269 0.64326,0.22538 0.75595,0 0.22538,-0.45076 -0.15937,-1.0338 0,-1.51191 0.11269,-0.33807 0.50397,-0.50396 0.75596,-0.75595 0.50396,-0.50397 1.00793,-1.00793 1.5119,-1.5119 0.25198,-0.25199 0.59658,-0.43722 0.75595,-0.75595 0.11269,-0.22538 -0.17818,-0.57778 0,-0.75596 0.17818,-0.17818 0.53057,0.11269 0.75595,0 3.1461,-1.57304 -0.80814,0.0522 0.75596,-1.5119 0.17818,-0.17818 0.57777,0.17818 0.75595,0 0.35636,-0.35636 -0.35636,-1.15555 0,-1.51191 0.17818,-0.17818 0.57777,0.17818 0.75595,0 0.17818,-0.17818 -0.11269,-0.53057 0,-0.75595 0.15937,-0.31874 0.50397,-0.50397 0.75595,-0.75595 0.25199,-0.25199 0.50397,-0.50397 0.75596,-0.75595 0.25198,-0.25199 0.55828,-0.45945 0.75595,-0.75595 0.31255,-0.46883 0.4434,-1.04309 0.75595,-1.51191 0.39535,-0.59302 1.11656,-0.91889 1.51191,-1.5119 0.31254,-0.46883 0.4434,-1.04309 0.75595,-1.51191 0.19767,-0.29651 0.50397,-0.50397 0.75595,-0.75595 0.25198,-0.25199 0.50397,-0.50397 0.75595,-0.75596 0.25199,-0.25198 0.55828,-0.45944 0.75596,-0.75595 0.31254,-0.46882 0.35752,-1.11348 0.75595,-1.5119 0.39842,-0.39842 1.04308,-0.44341 1.5119,-0.75595 0.29651,-0.19768 0.50397,-0.50397 0.75596,-0.75596 0.25198,-0.25198 0.59658,-0.43721 0.75595,-0.75595 0.22538,-0.45076 -0.22538,-1.06114 0,-1.5119 0.83572,-1.67146 0.46917,-0.23459 1.5119,-0.75596 0.31874,-0.15936 0.50397,-0.50396 0.75595,-0.75595 0.25199,-0.25198 0.59659,-0.43721 0.75596,-0.75595 0.11269,-0.22538 -0.17818,-0.57777 0,-0.75595 0.17818,-0.17818 0.57777,0.17818 0.75595,0 0.17818,-0.17818 -0.17818,-0.57778 0,-0.75595 0.17818,-0.17819 0.57777,0.17817 0.75595,0 0.17818,-0.17819 -0.17818,-0.57778 0,-0.75596 0.17818,-0.17818 0.50397,0 0.75595,0 0.78205,0 1.04484,0.17818 1.51191,-0.75595 0,-2.01587 -0.25198,0.25198 0.75595,-0.75595 0.17818,-0.17818 -0.17818,-0.57778 0,-0.75595 0.35636,-0.35637 1.15555,0.35636 1.51191,0 0.17817,-0.17818 -0.17818,-0.57778 0,-0.75596 0.17817,-0.17818 0.57777,0.17818 0.75595,0 0.17818,-0.17818 0,-0.50397 0,-0.75595 0,-0.50397 0,-1.00793 0,-1.51191 0,-0.25198 -0.17818,-0.57777 0,-0.75595 0.17818,-0.17818 0.57777,0.17818 0.75595,0 0.35636,-0.35636 -0.35636,-1.15554 0,-1.5119 0.17818,-0.17818 0.57777,0.17818 0.75595,0 0.17818,-0.17818 0,-0.50397 0,-0.75595 0,-0.75596 0,-1.51191 0,-2.26786 0,-0.25199 -0.11269,-0.53057 0,-0.75595 0.15937,-0.31874 0.59659,-0.43722 0.75596,-0.75596 0.11269,-0.22538 -0.25199,-0.75595 0,-0.75595 0.25198,0 0,0.50397 0,0.75595 0,0.50397 0,1.00794 0,1.51191 0,0.25198 -0.1127,0.53057 0,0.75595 1.57304,3.14609 -0.0522,-0.80814 1.5119,0.75595 0.17818,0.17818 -0.17818,0.57778 0,0.75596 0.17818,0.17818 0.53057,-0.1127 0.75595,0 3.14609,1.57304 -0.80814,-0.0522 0.75595,1.5119 0.17819,0.17818 0.53058,-0.11269 0.75596,0 0.31873,0.15937 0.50396,0.50397 0.75595,0.75595 0.25198,0.25199 0.59658,0.43722 0.75595,0.75595 0.11269,0.22539 -0.11269,0.53058 0,0.75596 0.15937,0.31873 0.59658,0.43721 0.75595,0.75595 0.1127,0.22538 -0.17817,0.57777 0,0.75595 0.17818,0.17818 0.57778,-0.17818 0.75596,0 0.17818,0.17818 -0.11269,0.53057 0,0.75596 0.15936,0.31873 0.59658,0.43721 0.75595,0.75595 0.11269,0.22538 -0.11269,0.53057 0,0.75595 0.15937,0.31874 0.59658,0.43722 0.75595,0.75595 0.11269,0.22538 0,0.50397 0,0.75596 0.25199,0.50396 0.44341,1.04308 0.75595,1.5119 0.19768,0.29651 0.64327,0.41788 0.75596,0.75595 0.15936,0.47811 -0.15937,1.0338 0,1.51191 0.11269,0.33807 0.55828,0.45944 0.75595,0.75595 0.0374,0.0561 1.4837,2.9862 1.5119,3.02381 0.42763,0.57017 1.08428,0.94173 1.51191,1.5119 0.33807,0.45077 0.50397,1.00794 0.75595,1.51191 0.50397,1.00793 1.00794,2.01587 1.51191,3.02381 0.25198,0.50397 0.50396,1.00793 0.75595,1.5119 0.25198,0.50397 0.61929,0.96528 0.75595,1.51191 1.3462,5.38479 -2.2879,-3.82986 0.75595,3.77976 0.20926,0.52315 0.50397,1.00794 0.75595,1.5119 0.50397,1.00794 1.00794,2.01588 1.51191,3.02381 0.25198,0.50397 0.61929,0.96528 0.75595,1.51191 0.12223,0.48892 -0.12223,1.02298 0,1.5119 0.13666,0.54663 0.50397,1.00794 0.75595,1.51191 0.25199,0.50397 0.44341,1.04308 0.75596,1.5119 0.19767,0.29651 0.59658,0.43722 0.75595,0.75596 0.11269,0.22538 -0.11269,0.53056 0,0.75595 0.15937,0.31873 0.64326,0.41788 0.75595,0.75595 0.15937,0.47811 -0.15937,1.0338 0,1.5119 0.11269,0.33808 0.59658,0.43722 0.75595,0.75596 0.0563,0.11254 -0.0542,1.34914 0,1.5119 0.17818,0.53454 0.57778,0.97737 0.75596,1.5119 0.0797,0.23906 0,0.50397 0,0.75596 0,0.25198 0,0.50397 0,0.75595 0,1.25992 0,2.51984 0,3.77976 0,1.00794 0,2.01588 0,3.02381 0,0.25198 0,0.50397 0,0.75595 0,0.25199 0.11269,0.53057 0,0.75596 -0.15937,0.31873 -0.50397,0.50396 -0.75596,0.75595 -0.25198,0.25198 -0.43721,0.59658 -0.75595,0.75595 -0.22538,0.11269 -0.57777,-0.17818 -0.75595,0 -0.17818,0.17818 0.17818,0.57777 0,0.75595 -0.17818,0.17818 -0.53057,-0.11269 -0.75595,0 -2.50718,2.50718 0.71271,-0.35636 -1.51191,0.75596 -0.31874,0.15936 -0.41788,0.64326 -0.75595,0.75595 -0.47811,0.15937 -1.06114,-0.22538 -1.51191,0 -0.22538,0.11269 0.1127,0.53057 0,0.75595 -0.83572,1.67145 -0.46917,0.23459 -1.5119,0.75595 -0.31874,0.15937 -0.43721,0.59659 -0.75595,0.75595 -0.45077,0.22539 -1.06114,-0.22538 -1.51191,0 -0.31873,0.15937 -0.43721,0.59659 -0.75595,0.75596 -0.45076,0.22538 -1.06114,-0.22538 -1.5119,0 -0.31874,0.15937 -0.41788,0.64326 -0.75596,0.75595 -0.4781,0.15937 -1.0338,-0.15937 -1.5119,0 -0.16882,0.0563 -1.29489,1.4034 -1.51191,1.5119 -0.22538,0.1127 -0.57777,-0.17817 -0.75595,0 -0.17818,0.17818 0.17818,0.57778 0,0.75596 -0.17818,0.17818 -0.53057,-0.11269 -0.75595,0 -0.63748,0.31873 -0.87443,1.19316 -1.51191,1.5119 -0.22538,0.11269 -0.53057,-0.11269 -0.75595,0 -0.31874,0.15937 -0.50397,0.50397 -0.75595,0.75596 -0.50397,0.50396 -1.00794,1.00793 -1.51191,1.5119 -0.25198,0.25198 -0.50396,0.50397 -0.75595,0.75595 -0.25198,0.25198 -0.59658,0.43722 -0.75595,0.75595 -0.11269,0.22538 0.17818,0.57778 0,0.75596 -0.17818,0.17817 -0.57777,-0.17818 -0.75595,0 -0.17818,0.17817 0.11269,0.53057 0,0.75595 -0.15937,0.31874 -0.59659,0.43721 -0.75595,0.75595 -0.1127,0.22538 0.11269,0.53057 0,0.75595 -0.15937,0.31874 -0.59659,0.43722 -0.75596,0.75596 -0.11269,0.22538 0.11269,0.53057 0,0.75595 -0.15937,0.31874 -0.59658,0.43721 -0.75595,0.75595 -0.11269,0.22538 0.17818,0.57777 0,0.75595 -0.17818,0.17818 -0.53057,-0.11269 -0.75595,0 -0.31874,0.15937 -0.43722,0.59659 -0.75595,0.75595 -0.22539,0.1127 -0.57778,-0.17817 -0.75596,0 -0.17818,0.17819 0.11269,0.53058 0,0.75596 -0.15936,0.31873 -0.50397,0.50397 -0.75595,0.75595 -0.25198,0.25198 -0.50397,0.50397 -0.75595,0.75595 -0.25198,0.25199 -0.43722,0.59659 -0.75595,0.75595 -0.22539,0.11269 -0.53057,-0.11269 -0.75596,0 -0.63747,0.31874 -0.87443,1.19317 -1.5119,1.51191 -0.22538,0.11269 -0.50397,0 -0.75595,0 -0.50397,0.25198 -1.04309,0.4434 -1.51191,0.75595 -0.29651,0.19767 -0.41788,0.64326 -0.75595,0.75596 -0.47811,0.15936 -1.0338,-0.15937 -1.51191,0 -0.33807,0.11268 -0.41788,0.64326 -0.75595,0.75595 -3.44131,0 -0.0432,-0.35636 -2.26785,0.75595 -0.22539,0.11269 -0.50397,0 -0.75596,0 -0.75595,0 -1.5119,0 -2.26785,0 -1.51191,0 -3.02381,0 -4.53572,0 -3.27579,0 -6.55158,0 -9.82738,0 -0.25198,0 -0.50397,0 -0.75595,0 -0.25199,0 -0.57777,0.17818 -0.75595,0 -0.17818,-0.17818 0.17818,-0.57777 0,-0.75595 -0.17818,-0.17818 -0.53057,0.11269 -0.75596,0 -0.31873,-0.15937 -0.43721,-0.59659 -0.75595,-0.75595 -0.22538,-0.1127 -0.50397,0 -0.75595,0 -0.99608,0 -0.51583,0 -1.51191,0 -0.25198,0 -0.57777,0.17817 -0.75595,0 -0.17818,-0.17819 0.17818,-0.57778 0,-0.75596 -0.17818,-0.17818 -0.50397,0 -0.75595,0 -1.00794,0 -2.01587,0 -3.02381,0 -0.25199,0 -0.57777,0.17818 -0.75595,0 -0.17818,-0.17818 0.17818,-0.57777 0,-0.75595 -0.17818,-0.17818 -0.50397,0 -0.75595,0 -0.25199,0 -0.50397,0 -0.755956,0 -1.259922,0 -2.519842,0 -3.779764,0 -0.251983,0 -0.503967,0 -0.755951,0 -0.251984,0 -0.511493,-0.0611 -0.755952,0 -0.773051,0.19326 -1.511906,0.50397 -2.267857,0.75595 z"
       id="path136"
       inkscape:connector-curvature="0" />
  </g>
</svg>
